<svg width="24" height="24" viewBox="0 0 24 24" fill="none" xmlns="http://www.w3.org/2000/svg">
<path d="M15.6183 11.1284C17.154 10.0084 18.154 8.19581 18.154 6.15384C18.154 2.76061 15.3934 0 12.0001 0C8.60691 0 5.8463 2.76061 5.8463 6.15384C5.8463 8.19581 6.84628 10.0084 8.382 11.1284C4.5645 12.5892 1.84631 16.2905 1.84631 20.6154C1.84631 22.4817 3.36464 24 5.23092 24H18.7694C20.6356 24 22.154 22.4817 22.154 20.6154C22.154 16.2905 19.4358 12.5892 15.6183 11.1284ZM7.69247 6.15384C7.69247 3.77859 9.62489 1.84617 12.0001 1.84617C14.3754 1.84617 16.3078 3.77859 16.3078 6.15384C16.3078 8.52909 14.3754 10.4616 12.0001 10.4616C9.62489 10.4616 7.69247 8.52909 7.69247 6.15384ZM18.7694 22.1538H5.23092C4.38263 22.1538 3.69249 21.4637 3.69249 20.6153C3.69249 16.0344 7.41924 12.3076 12.0002 12.3076C16.5811 12.3076 20.3079 16.0344 20.3079 20.6153C20.3078 21.4637 19.6177 22.1538 18.7694 22.1538Z" fill="#555555"/>
</svg>
